<?xml version="1.0" standalone="no"?>
<!DOCTYPE svg PUBLIC "-//W3C//DTD SVG 20010904//EN"
 "http://www.w3.org/TR/2001/REC-SVG-20010904/DTD/svg10.dtd">
<svg version="1.0" xmlns="http://www.w3.org/2000/svg"
 width="1250.000000pt" height="1250.000000pt" viewBox="0 0 1250.000000 1250.000000"
 preserveAspectRatio="xMidYMid meet">
<metadata>
Created by potrace 1.16, written by Peter Selinger 2001-2019
</metadata>
<g transform="translate(0.000000,1250.000000) scale(0.100000,-0.100000)"
fill="#000000" stroke="none">
<path d="M8515 9129 c-216 -18 -499 -81 -667 -148 -181 -72 -382 -185 -523
-296 -111 -87 -307 -292 -387 -405 -128 -182 -236 -419 -292 -642 -49 -197
-66 -343 -66 -570 0 -470 105 -839 341 -1194 92 -138 337 -387 479 -487 314
-220 680 -347 1115 -387 350 -32 766 26 1083 151 285 112 508 263 724 488 274
286 433 612 510 1040 30 168 33 564 5 736 -81 510 -304 915 -679 1233 -214
181 -496 326 -778 401 -291 77 -580 104 -865 80z m201 -124 c327 -57 661 -258
906 -545 576 -674 780 -1755 476 -2525 -131 -333 -342 -573 -623 -711 -366
-178 -812 -156 -1195 61 -397 224 -707 620 -909 1157 -249 665 -222 1481 67
1963 199 333 479 536 824 599 104 19 346 19 454 1z"/>
<path d="M1460 9033 c170 -133 271 -250 373 -430 l67 -118 0 -1300 c0 -1326
-4 -1492 -39 -1672 -51 -262 -142 -364 -353 -398 -29 -4 -38 -11 -38 -25 0
-20 10 -20 490 -20 472 0 490 1 490 19 0 14 -10 20 -37 25 -62 10 -140 52
-188 102 -55 56 -117 180 -145 287 -54 212 -53 198 -57 1512 -2 671 -2 1217 0
1215 3 -3 363 -720 800 -1595 438 -874 802 -1598 809 -1608 13 -17 24 5 115
220 55 131 381 900 723 1708 342 809 651 1538 686 1620 l63 150 1 -1690 0
-1690 -24 -51 c-41 -89 -147 -144 -333 -174 -61 -10 -73 -15 -73 -31 0 -19 18
-19 725 -19 713 0 725 0 725 20 0 14 -9 21 -37 25 -214 34 -315 84 -366 179
l-22 41 0 1730 0 1730 22 41 c48 89 165 146 366 179 28 4 37 11 37 25 0 20
-11 20 -507 20 l-508 0 -674 -1596 c-371 -877 -677 -1597 -680 -1599 -4 -1
-366 716 -807 1594 l-800 1596 -420 2 -419 3 35 -27z"/>
<path d="M3661 4610 c-116 -77 -121 -82 -121 -115 0 -20 -4 -43 -10 -53 -8
-14 -50 -112 -190 -437 -4 -11 -17 -40 -28 -65 -11 -25 -28 -63 -37 -85 -10
-22 -26 -58 -35 -80 -10 -22 -48 -110 -85 -195 -36 -85 -73 -171 -82 -190 -76
-175 -122 -239 -193 -272 -28 -13 -49 -27 -47 -33 4 -11 355 -20 395 -10 30 7
20 22 -21 31 -120 26 -144 88 -86 225 17 41 33 82 36 92 5 16 34 17 434 17
l429 0 15 -37 c82 -195 60 -278 -78 -298 -53 -8 -69 -22 -35 -30 13 -3 153 -4
312 -3 221 2 290 6 294 16 2 7 -5 12 -20 12 -72 0 -130 86 -223 335 -15 39
-32 84 -40 100 -7 17 -33 83 -59 148 -25 64 -67 170 -92 235 -26 64 -52 131
-59 147 -7 17 -24 59 -38 95 -58 149 -100 257 -112 285 -30 72 -64 163 -74
203 -7 23 -15 42 -20 42 -5 0 -63 -36 -130 -80z m-6 -260 c21 -52 43 -108 50
-125 8 -16 26 -61 41 -100 14 -38 32 -83 39 -100 48 -114 205 -510 205 -518 0
-4 -180 -8 -400 -9 -220 -2 -400 -1 -400 0 0 4 176 413 205 477 25 57 62 140
136 312 41 94 77 169 81 165 3 -4 23 -50 43 -102z"/>
<path d="M9083 4615 c-61 -40 -115 -80 -119 -87 -5 -7 -9 -26 -10 -42 -1 -16
-12 -52 -25 -80 -31 -71 -42 -97 -173 -401 -64 -148 -123 -283 -131 -300 -15
-34 -61 -138 -130 -300 -80 -187 -127 -251 -214 -295 -36 -18 -42 -24 -28 -31
26 -15 399 -7 405 9 2 6 -2 12 -10 12 -33 0 -93 24 -114 45 -42 42 -31 128 33
263 l15 32 427 0 427 0 32 -82 c63 -164 36 -233 -101 -253 -29 -5 -46 -12 -44
-19 4 -12 560 -22 605 -11 30 7 20 21 -21 29 -74 14 -103 67 -273 496 -64 162
-159 403 -211 535 -52 132 -111 281 -130 330 -20 50 -44 109 -54 132 -11 23
-19 53 -19 67 0 15 -6 26 -12 26 -7 -1 -63 -34 -125 -75z m-33 -208 c0 -5 6
-23 14 -40 8 -18 27 -63 42 -102 14 -38 32 -83 39 -100 7 -16 25 -61 40 -100
14 -38 32 -83 39 -100 8 -16 39 -95 70 -175 31 -80 63 -158 70 -175 7 -16 21
-47 30 -69 9 -21 15 -40 13 -42 -1 -2 -183 -5 -404 -6 l-401 -3 25 55 c14 30
29 66 34 80 6 14 19 45 30 70 12 25 25 54 29 65 5 11 24 56 43 100 19 44 65
150 102 235 36 85 73 169 80 185 8 17 28 61 45 100 30 65 33 69 46 51 8 -11
14 -24 14 -29z"/>
<path d="M2009 4656 c-3 -3 -39 -12 -81 -21 -329 -68 -593 -309 -655 -598 -21
-102 -28 -241 -13 -307 46 -209 109 -330 232 -446 103 -97 178 -142 323 -195
90 -33 91 -33 280 -33 159 -1 200 2 250 18 77 24 201 88 240 124 54 51 105
112 105 127 0 20 -24 19 -41 -1 -25 -30 -124 -91 -184 -113 -83 -31 -147 -42
-245 -42 -118 1 -178 14 -278 63 -72 35 -103 58 -178 133 -81 82 -97 104 -147
206 -94 195 -120 389 -77 585 43 199 130 317 289 392 68 33 83 36 185 40 176
7 296 -37 375 -137 69 -86 94 -245 57 -350 -36 -98 -12 -93 66 15 179 246 217
304 212 318 -3 8 -27 32 -52 54 -145 121 -300 172 -528 172 -72 0 -133 -2
-135 -4z"/>
<path d="M6767 4628 c-5 -3 -16 -41 -22 -85 -25 -159 -53 -328 -57 -342 -1 -7
2 -15 9 -18 7 -3 31 33 59 89 112 223 214 295 437 305 l118 6 -3 -694 c-2
-542 -6 -699 -16 -716 -17 -30 -75 -59 -135 -67 -58 -7 -74 -15 -56 -27 16
-10 618 -12 643 -3 30 11 16 22 -36 29 -29 4 -70 14 -90 22 -72 29 -68 -16
-68 758 l0 695 120 0 c140 0 213 -20 267 -72 55 -53 75 -107 82 -219 3 -55 11
-100 16 -102 6 -1 17 18 26 43 9 25 18 52 21 60 3 8 27 83 53 165 27 83 50
156 53 162 3 10 -147 13 -703 15 -389 2 -712 0 -718 -4z"/>
<path d="M4596 4622 c-3 -5 23 -17 58 -26 39 -11 73 -28 88 -43 l23 -25 0
-661 c0 -364 -3 -674 -8 -689 -7 -27 -68 -68 -101 -68 -8 0 -27 -5 -43 -11
-58 -22 6 -29 272 -29 266 0 330 7 272 29 -16 6 -35 11 -43 11 -33 0 -94 41
-101 68 -5 15 -8 126 -8 247 l0 220 245 6 c241 6 246 6 339 37 51 18 106 41
121 52 15 11 33 20 39 20 22 0 159 146 184 196 92 183 69 404 -55 525 -55 53
-112 86 -206 117 l-77 26 -497 4 c-291 2 -499 -1 -502 -6z m857 -62 c43 -10
97 -31 122 -46 63 -36 122 -115 150 -199 14 -43 22 -215 14 -307 -8 -94 -30
-159 -71 -208 -63 -76 -251 -115 -433 -91 -159 21 -210 33 -222 49 -10 12 -13
110 -13 412 0 218 3 400 7 403 3 4 88 7 188 7 148 0 196 -4 258 -20z"/>
<path d="M6070 4620 c0 -5 19 -14 43 -20 81 -20 105 -36 116 -77 12 -41 14
-1285 2 -1337 -8 -36 -43 -63 -104 -79 -100 -25 -50 -32 233 -32 284 0 337 7
235 32 -59 15 -97 41 -106 74 -9 32 -9 1317 0 1349 7 28 52 54 119 70 93 23
38 30 -248 30 -179 0 -290 -4 -290 -10z"/>
<path d="M10010 4620 c0 -5 31 -18 69 -30 38 -11 75 -28 82 -37 12 -13 14
-133 14 -679 0 -649 0 -663 -20 -690 -17 -22 -87 -67 -137 -87 -10 -4 -10 -8
2 -16 10 -7 189 -11 550 -11 517 0 536 -1 568 -20 40 -24 48 -25 57 -2 13 33
115 434 115 453 0 28 -31 0 -79 -72 -109 -165 -224 -261 -345 -286 -38 -8
-138 -13 -263 -13 l-203 0 1 683 c0 501 3 691 12 717 10 31 19 37 67 52 30 9
67 19 83 23 15 3 27 10 27 15 0 6 -111 10 -300 10 -184 0 -300 -4 -300 -10z"/>
</g>
</svg>
